<svg width="32" height="32" viewBox="0 0 32 32" fill="none" xmlns="http://www.w3.org/2000/svg">
<path d="M14.0005 29.5001L23.5005 29.5001C23.9615 29.5763 27.0478 29.2611 27.5005 29.0001C28.6682 28.1782 27.4557 25.8152 28.0248 23.5001C28.4852 21.3407 29.8468 18.8659 30.0003 16.5001C30.0836 15.5839 30.4266 14.4166 30.5003 13.5001C30.6252 12.6562 29.1911 11.3448 29.0958 10.4954C28.9876 10.0103 28.8365 9.58614 28.652 9.24987C28.4676 8.9136 28.254 8.67263 28.0248 8.5423C27.2484 8.06243 26.5004 8.5423 25.633 7.92238C23.5005 7.00167 21.4264 6.77986 19.5004 7.00036C15.1701 7.49611 11.7566 8.73865 7.73601 10.2287C7.20939 10.355 6.69993 10.7758 6.25121 11.4549C5.80249 12.1341 5.42786 13.0515 5.15938 14.1286C5.06375 14.6764 4.94839 15.2055 4.81456 15.7102C4.57029 16.488 4.15937 16.9033 3.87747 17.6353C3.63842 18.3609 3.47249 19.1997 3.39248 20.087C3.1874 20.9031 3.08691 21.8334 3.10324 22.7646C3.11957 23.6958 3.25201 24.5878 3.48445 25.3318C3.71688 26.0758 4.03928 26.6399 4.41237 26.9552C4.78546 27.2705 4.42193 29.7158 4.81456 29.5001C5.43898 29.5158 7.06356 29.4832 7.73601 29.5001C8.18673 29.599 9.56109 29.2634 10.0005 29.5001C11.2743 29.7765 11.2171 29.5781 12.5005 29.5001" fill="#B3D9E5"/>
<path d="M4.69397 28.93L1.875 13.9805" stroke="#5D99AA" stroke-width="0.5" stroke-miterlimit="10"/>
<path d="M27.3086 28.93L30.1276 13.9805" stroke="#5D99AA" stroke-width="0.5" stroke-miterlimit="10"/>
<path d="M7.66605 29.0218L1.875 13.9805" stroke="#5D99AA" stroke-width="0.5" stroke-miterlimit="10"/>
<path d="M3.77344 24.0727L7.66416 13.9805" stroke="#5D99AA" stroke-width="0.5" stroke-miterlimit="10"/>
<path d="M11.4031 29.0218L5.62109 13.9805" stroke="#5D99AA" stroke-width="0.5" stroke-miterlimit="10"/>
<path d="M5.62109 29.0218L11.4031 13.9805" stroke="#5D99AA" stroke-width="0.5" stroke-miterlimit="10"/>
<path d="M15.1492 29.0218L9.36719 13.9805" stroke="#5D99AA" stroke-width="0.5" stroke-miterlimit="10"/>
<path d="M9.36719 29.0218L15.1492 13.9805" stroke="#5D99AA" stroke-width="0.5" stroke-miterlimit="10"/>
<path d="M18.8965 29.0218L13.1055 13.9805" stroke="#5D99AA" stroke-width="0.5" stroke-miterlimit="10"/>
<path d="M13.1055 29.0218L18.8965 13.9805" stroke="#5D99AA" stroke-width="0.5" stroke-miterlimit="10"/>
<path d="M22.6336 29.0218L16.8516 13.9805" stroke="#5D99AA" stroke-width="0.5" stroke-miterlimit="10"/>
<path d="M16.8516 29.0218L22.6336 13.9805" stroke="#5D99AA" stroke-width="0.5" stroke-miterlimit="10"/>
<path d="M26.3836 29.0218L20.6016 13.9805" stroke="#5D99AA" stroke-width="0.5" stroke-miterlimit="10"/>
<path d="M20.6016 29.0218L26.3836 13.9805" stroke="#5D99AA" stroke-width="0.5" stroke-miterlimit="10"/>
<path d="M28.2267 24.0727L24.3359 13.9805" stroke="#5D99AA" stroke-width="0.5" stroke-miterlimit="10"/>
<path d="M24.3359 29.0218L30.127 13.9805" stroke="#5D99AA" stroke-width="0.5" stroke-miterlimit="10"/>
<path d="M27.5084 28.9297H4.48828V29.991H27.5084V28.9297Z" fill="#0495AE"/>
<path d="M31 13.2656H1V13.9799H31V13.2656Z" fill="#0495AE"/>
<path d="M19.0012 13.3788C19.0012 13.3788 16.6538 13.2325 16.063 13.3788C16.0445 13.3788 16.0445 13.3971 16.0261 13.4154L16.0076 13.4337C15.9892 13.452 15.9707 13.4886 15.9522 13.5435C15.9338 13.5618 15.9338 13.5984 15.9153 13.6349C15.9153 13.6532 15.8968 13.6898 15.8968 13.7264C15.8968 13.763 15.8784 13.7813 15.8784 13.8179C15.8784 13.8362 15.8599 13.8545 15.8599 13.8911C15.8599 13.9094 15.8599 13.9277 15.8414 13.9642C15.823 14.0923 15.8045 14.2387 15.7676 14.385C15.7491 14.4582 15.7491 14.5314 15.7307 14.6045C15.7122 14.7143 15.7122 14.8241 15.6937 14.9521C15.6753 15.1717 15.6383 15.4095 15.6199 15.6473C15.6199 15.7205 15.6014 15.8119 15.6014 15.8851C15.6014 15.9217 15.6014 15.9583 15.583 15.9949C15.583 16.0681 15.5645 16.1412 15.5645 16.2144C15.5645 16.251 15.5645 16.2876 15.546 16.3242C15.5091 16.6901 15.4906 17.0559 15.4537 17.4584C15.4537 17.5499 15.4352 17.6414 15.4352 17.7328C15.4352 17.7694 15.4352 17.8243 15.4352 17.8609C15.4352 17.8975 15.4352 17.9524 15.4352 17.9889C15.4352 18.0621 15.4168 18.1536 15.4168 18.2451C15.4168 18.3548 15.3983 18.4646 15.3983 18.5744C15.3799 18.7207 15.3799 18.8854 15.3614 19.05C15.3405 19.236 15.4235 19.4938 15.2229 20.5C15.2229 20.6098 15.2045 20.7195 15.2045 20.8293C15.2045 20.9391 15.186 21.0488 15.186 21.1586C15.186 21.2684 15.1676 21.3781 15.1676 21.4696C15.1676 21.5793 15.1491 21.7074 15.1491 21.8172C15.1306 22.1099 15.1306 22.4026 15.1122 22.677C15.1122 22.7868 15.0937 22.8965 15.0937 22.988C15.0937 23.0612 15.0937 23.1343 15.0752 23.2075V23.2258C15.0752 23.3539 15.0568 23.5002 15.0568 23.61C15.0568 23.61 15.0568 23.61 15.0568 23.6283C15.0568 23.7563 15.0383 23.8661 15.0383 23.9942C15.0383 24.1039 15.0198 24.232 15.0198 24.3418C15.0198 24.4515 15.0014 24.543 15.0014 24.6345C15.0014 24.7808 14.9829 24.9272 14.9829 25.0552C14.9829 25.1284 14.9829 25.1833 14.9645 25.2565C14.9645 25.293 14.9645 25.3296 14.9645 25.3662C14.9645 25.4394 14.9645 25.4943 14.946 25.5492C14.946 25.5858 14.946 25.6223 14.946 25.6589C14.946 25.7138 14.946 25.7504 14.9275 25.8053C14.9275 25.8419 14.9275 25.8785 14.9091 25.9151C14.8906 26.1163 14.8906 26.3359 14.8906 26.5737C14.8906 26.6286 14.8906 26.6834 14.8906 26.7383V26.7566C14.8906 26.8298 14.8906 26.8847 14.9091 26.9579C14.9091 26.9761 14.9091 26.9761 14.9091 26.9944C14.9091 27.0493 14.9091 27.1042 14.9275 27.1591C14.9275 27.1957 14.9275 27.214 14.9275 27.2506C14.9275 27.2506 14.9275 27.2506 14.9275 27.2689C14.9275 27.342 14.946 27.4152 14.946 27.4884C14.946 27.5067 14.946 27.5067 14.946 27.525C14.946 27.5616 14.9645 27.6164 14.9645 27.653C14.9829 27.8726 15.0198 28.0921 15.0568 28.2933C15.0568 28.3482 15.0752 28.4031 15.0752 28.458C15.0752 28.4946 15.0937 28.5311 15.0937 28.5677C15.1122 28.6409 15.1122 28.7141 15.1306 28.769C15.1491 28.8421 15.1491 28.897 15.1676 28.9519C15.186 29.0068 15.186 29.0434 15.186 29.0983C15.186 29.1348 15.2045 29.1714 15.2045 29.1897C15.2045 29.2446 15.2229 29.2812 15.2229 29.3178C15.2229 29.3361 15.2229 29.3361 15.2229 29.3544C15.2414 29.4276 15.2414 29.4641 15.2414 29.4641C15.1491 29.4824 15.0752 29.5007 14.9829 29.519C14.946 29.519 14.9091 29.5373 14.8721 29.5373C14.7244 29.5556 14.5583 29.5922 14.3921 29.6105C14.2813 29.6288 14.189 29.6288 14.0782 29.6471C14.0043 29.6471 13.949 29.6654 13.8751 29.6654C11.1425 29.9032 8.29376 30.1053 7.18595 29.776C7.11209 29.7577 7.0567 29.7394 7.00131 29.7211C7.01978 29.6662 7.01977 29.6113 7.03824 29.5748C7.07517 29.3735 7.13047 28.9939 7.18586 28.7927V28.7744C7.18586 28.7561 7.18586 28.7378 7.18586 28.7195C7.20432 28.5366 7.112 28.5366 7.00122 28.5C6.00419 28.1158 1.9981 26.7499 1.01953 26.3475C1.46266 23.9144 2.41032 18.0804 3.00116 14.6411C3.1304 13.9277 3.25965 13.3239 3.42582 12.83C3.88741 11.3299 5.32757 10.342 6.91544 10.4152L7.48781 10.4518C7.87554 10.4701 8.24481 10.3603 8.55869 10.1408C8.59562 10.1225 8.63255 10.0859 8.65101 10.0676L8.66948 10.0493C9.02029 9.7566 9.62958 9.44561 10.6082 9.50049C17.5012 9.50049 19.0012 13.3788 19.0012 13.3788Z" fill="#FAC7A6"/>
<path opacity="0.1" d="M6.99994 10.5C6.79684 12.3111 7.68315 25.6644 7.18464 28.7195C7.2031 28.5366 7.11078 28.5366 7 28.5C6.00297 28.1158 2.00591 26.7499 1.02734 26.3475C1.08273 26.0548 1.13813 25.6889 1.23044 25.2315C3.98152 25.2681 4.80344 20.2385 5.57891 16.2321C6.11435 13.5978 6.37218 11.5793 6.99994 10.5Z" fill="#2E1403"/>
</svg>
