<svg width="32" height="32" viewBox="0 0 32 32" fill="none" xmlns="http://www.w3.org/2000/svg">
<path d="M2 18H30V23C30 23.5523 29.5523 24 29 24H5C3.34315 24 2 22.6569 2 21L2 18Z" fill="#E0E0E0"/>
<ellipse cx="25.3277" cy="23.7887" rx="2.07081" ry="3.04642" transform="rotate(75 25.3277 23.7887)" fill="#E0E0E0"/>
<ellipse cx="10.691" cy="23.7887" rx="2.07081" ry="3.04642" transform="rotate(75 10.691 23.7887)" fill="#E0E0E0"/>
<path d="M19 8H24.6919C25.3072 8 25.8882 8.28317 26.2672 8.76776L30.5753 14.2752C30.8505 14.6271 31 15.0608 31 15.5075V21C31 22.1046 30.1046 23 29 23H21C19.8954 23 19 22.1046 19 21V8Z" fill="#80C0D3"/>
<path d="M30.7148 16.375V16.1691C30.7148 15.8972 30.6135 15.6326 30.4261 15.4156L27.7148 12H22.4291C22.0346 12 21.7148 12.2798 21.7148 12.625V16.375C21.7148 16.7202 22.0346 17 22.4291 17H30.0006C30.395 17 30.7148 16.7202 30.7148 16.375Z" fill="#339AB9"/>
<rect x="1" y="4" width="18" height="19" rx="2" fill="#B3D9E5"/>
<path d="M19 21.6429V5.35714C19 4.60761 18.1046 4 17 4V23C18.1046 23 19 22.3924 19 21.6429Z" fill="#97C1CD"/>
<path d="M1 5.35714L0.999998 21.6429C0.999998 22.3924 1.89543 23 3 23L3 4C1.89543 4 1 4.60761 1 5.35714Z" fill="#97C1CD"/>
<path fill-rule="evenodd" clip-rule="evenodd" d="M7.32152 15.1639H10.5419H13.7639L14.1151 9.52344L12.1364 13.6218L10.5419 11.632L8.94896 13.6218L6.96875 9.52344L7.32152 15.1639Z" fill="#F8A97E"/>
<path d="M10.3196 15.5936H7.15349C7.08076 15.5933 7.01089 15.5677 6.95818 15.5219C6.90548 15.4761 6.87393 15.4136 6.87 15.3472L6.52488 9.81008C6.51807 9.74849 6.53549 9.68669 6.57402 9.63577C6.61254 9.58485 6.66966 9.54814 6.73513 9.53221C6.80059 9.51628 6.87012 9.52218 6.93126 9.54885C6.9924 9.57551 7.04114 9.62121 7.06875 9.67774L8.81592 13.2988L10.087 11.7079C10.1132 11.6742 10.1479 11.6467 10.1881 11.6277C10.2283 11.6088 10.2729 11.5989 10.3181 11.5989C10.3634 11.5989 10.4079 11.6088 10.4481 11.6277C10.4884 11.6467 10.523 11.6742 10.5492 11.7079L11.8234 13.303L13.5705 9.68196C13.5975 9.62613 13.645 9.5807 13.7048 9.55361C13.7646 9.52652 13.833 9.51949 13.8979 9.53373C13.9628 9.54798 14.0202 9.5826 14.0601 9.63156C14.0999 9.68052 14.1197 9.74071 14.1159 9.80163L13.7708 15.3373C13.7708 15.4064 13.7408 15.4727 13.6873 15.5215C13.6339 15.5704 13.5614 15.5978 13.4858 15.5978L10.3196 15.5936ZM7.42312 15.0727H13.2239L13.4658 11.2025L12.1454 13.9196C12.1244 13.9631 12.0908 14.0005 12.0482 14.0278C12.0056 14.0551 11.9556 14.0712 11.9037 14.0744C11.8518 14.0776 11.8 14.0677 11.7538 14.0459C11.7075 14.0241 11.6687 13.9911 11.6416 13.9506L10.3196 12.2964L8.98385 13.9675C8.95461 14.0046 8.91512 14.034 8.86942 14.0527C8.82372 14.0713 8.77342 14.0786 8.72365 14.0737C8.67388 14.0689 8.62641 14.052 8.58605 14.025C8.5457 13.9979 8.5139 13.9616 8.4939 13.9196L7.18277 11.201L7.42312 15.0727Z" fill="#FF9064"/>
<circle cx="9.5" cy="23.5" r="2.5" fill="#339AB9"/>
<circle cx="24.5" cy="23.5" r="2.5" fill="#339AB9"/>
<path d="M19 8V21C19 21.7403 19.4022 22.3866 20 22.7324V8H19Z" fill="#63A2B4"/>
<path d="M11 23.5C11 24.3284 10.3284 25 9.5 25C8.67157 25 8 24.3284 8 23.5C8 22.6716 8.67157 22 9.5 22C10.3284 22 11 22.6716 11 23.5Z" fill="#80C0D3"/>
<path d="M26 23.5C26 24.3284 25.3284 25 24.5 25C23.6716 25 23 24.3284 23 23.5C23 22.6716 23.6716 22 24.5 22C25.3284 22 26 22.6716 26 23.5Z" fill="#80C0D3"/>
<path d="M30 15.375V15.1691C30 14.8972 29.8986 14.6326 29.7112 14.4156L27 11H21.7143C21.3198 11 21 11.2798 21 11.625V15.375C21 15.7202 21.3198 16 21.7143 16H29.2857C29.6802 16 30 15.7202 30 15.375Z" fill="#FCFFFF"/>
</svg>
