<svg width="48" height="47" viewBox="0 0 48 47" fill="none" xmlns="http://www.w3.org/2000/svg">
<ellipse cx="24" cy="39.5" rx="24" ry="7.5" fill="#97C1CD"/>
<path d="M10.6667 1H36.3333C37.8106 1 39 2.19036 39 3.65217V38.3478C39 39.8096 37.8106 41 36.3333 41H10.6667C9.18938 41 8 39.8096 8 38.3478V3.65217C8 2.19036 9.18938 1 10.6667 1Z" fill="#EBF5FA" stroke="#B3D9E5" stroke-width="2" stroke-miterlimit="10" stroke-linecap="round" stroke-linejoin="round"/>
<path opacity="0.5" d="M25.5 36C31.0228 36 35.5 31.5228 35.5 26C35.5 20.4772 31.0228 16 25.5 16C19.9772 16 15.5 20.4772 15.5 26C15.5 31.5228 19.9772 36 25.5 36Z" fill="#003443"/>
<path d="M35.25 36H33.75C33.3375 36 33 36.3 33 36.6667V37.3333C33 37.7 33.3375 38 33.75 38H35.25C35.6625 38 36 37.7 36 37.3333V36.6667C36 36.3 35.6625 36 35.25 36Z" fill="#80C0D3"/>
<path d="M35.5083 3H33.4833C32.6667 3 32 3.6 32 4.3425V4.665C32 5.4 32.6667 6 33.4917 6H35.5167C36.3333 6 37 5.4 37 4.6575V4.3425C37 3.6 36.3333 3 35.5083 3Z" fill="#FFDEC7"/>
<path d="M35.3088 6H33C36.6401 6 36.0496 4 35.2993 3C36.2399 3 37 3.6 37 4.3425V4.6575C37 5.4 36.2399 6 35.3088 6Z" fill="#FFB987"/>
<path d="M25.5 6C26.3284 6 27 5.32843 27 4.5C27 3.67157 26.3284 3 25.5 3C24.6716 3 24 3.67157 24 4.5C24 5.32843 24.6716 6 25.5 6Z" fill="#FFDEC7"/>
<path d="M25.282 6C26.2308 6 27 5.32843 27 4.5C27 3.67157 26.2308 3 25.282 3C25.282 3 27.4293 4.5 25.712 5.25C24.8531 5.625 24.8524 6 25.282 6Z" fill="#FFB987"/>
<path d="M24 36C29.5228 36 34 31.5228 34 26C34 20.4772 29.5228 16 24 16C18.4772 16 14 20.4772 14 26C14 31.5228 18.4772 36 24 36Z" fill="#339AB9"/>
<path d="M28.8138 26.23C28.8138 24.93 29.6538 23.76 31 22.91C29.7938 20.6 27.2846 19 24.3769 19C20.3062 19 17 22.13 17 26C17 29.87 20.3062 33 24.3769 33C27.1446 33 29.5462 31.56 30.8062 29.42C29.5785 28.59 28.8138 27.47 28.8138 26.23Z" fill="#EBF8FA"/>
<path d="M28.9282 26.3298L26.5131 27.0424C26.5131 27.0424 25.1646 27.498 23.9142 27.0424C22.8599 26.6569 19.2434 24.9514 17 26.9606C17.5394 30.3717 20.6165 33 24.3555 33C27.2609 33 29.7741 31.4113 31 29.0984C29.8354 28.6428 29.0018 27.5798 28.9282 26.3298Z" fill="#B3E7EA"/>
<path d="M23.2353 29.1902C25.7765 30.0899 27.2941 28.3749 28 28C24.1882 33.3981 20.0588 30.3148 19 28C20.5882 29.1902 20.6941 28.2905 23.2353 29.1902Z" fill="#EBF8FA"/>
<path d="M38 8L11 8" stroke="#B3D9E5" stroke-miterlimit="10" stroke-linejoin="round"/>
<path d="M29.5 6C29.7761 6 30 5.77614 30 5.5C30 5.22386 29.7761 5 29.5 5C29.2239 5 29 5.22386 29 5.5C29 5.77614 29.2239 6 29.5 6Z" fill="#FFDEC7"/>
<path d="M29.5 4C29.7761 4 30 3.77614 30 3.5C30 3.22386 29.7761 3 29.5 3C29.2239 3 29 3.22386 29 3.5C29 3.77614 29.2239 4 29.5 4Z" fill="#FFDEC7"/>
<path d="M29.4997 6C29.9431 6 30 5.5 30 5.5C30 5.5 29.9431 5 29.4997 5C29.0562 5 29.5002 5.22386 29.5002 5.5C29.5002 5.77614 29.0562 6 29.4997 6Z" fill="#FFB987"/>
<path d="M29.4997 4C29.9431 4 30 3.5 30 3.5C30 3.5 29.9431 3 29.4997 3C29.0562 3 29.5002 3.22386 29.5002 3.5C29.5002 3.77614 29.0562 4 29.4997 4Z" fill="#FFB987"/>
<path d="M7 3.65217V38.3478C7 39.998 8.19713 41.3917 9.84211 41.8448C10.2086 41.9457 10.5973 42 11 42V0C10.5973 0 10.2086 0.0542574 9.84211 0.155206C8.19713 0.608299 7 2.002 7 3.65217Z" fill="#B3D9E5"/>
</svg>
