<svg width="64" height="64" viewBox="0 0 64 64" fill="none" xmlns="http://www.w3.org/2000/svg">
<rect x="26" y="6" width="10" height="12" fill="#FFDEC7"/>
<path d="M27 6H36V5C36 4.44772 35.5523 4 35 4H28C27.4477 4 27 4.44772 27 5V6Z" fill="#FEC298"/>
<path d="M31 0V5.34288H32V0H31ZM31.3378 4.8699L20.5135 8.58108L20.8379 9.52703L31.6622 5.81585L31.3378 4.8699ZM21 11.5H42V10.5H21V11.5ZM42.4865 8.58108L31.6622 4.8699L31.3378 5.81585L42.1621 9.52703L42.4865 8.58108ZM42 11.5C43.6942 11.5 44.0891 9.13057 42.4865 8.58108L42.1621 9.52703C42.6964 9.71019 42.5647 10.5 42 10.5V11.5ZM20.5135 8.58108C18.9109 9.13056 19.3058 11.5 21 11.5V10.5C20.4353 10.5 20.3036 9.71019 20.8379 9.52703L20.5135 8.58108Z" fill="#2E1403"/>
<path d="M17.5 8.5L26.154 6H27C25 15.1338 31.1836 17.5 31.1836 17.5C31.1836 17.5 31.3973 59.9352 31 60.1338C30.5023 60.3826 19.3847 56.7002 17 54.8339C17 52.0345 18.2442 30.2614 18.8663 24.3516C19.3639 19.6237 18.3295 11.7141 17.5 8.5Z" fill="#FFDEC7"/>
<path d="M45.0007 8.5L36.0381 6C38.0381 15.1338 31.0085 17.5 31.0085 17.5C31.0085 17.5 30.7949 59.9352 31.1921 60.1338C31.6898 60.3826 42.8075 56.7002 45.1921 54.8339C45.1921 52.0345 43.948 30.2614 43.3259 24.3516C42.8282 19.6237 44.1713 11.7141 45.0007 8.5Z" fill="#FFDEC7"/>
<path d="M14 36.9708C14.2488 16.0686 16.5669 9.12209 17.5 8.5C21.2325 12.4814 19.4951 29.9205 18.3546 37.9039C16.6128 38.6504 14.7258 37.5929 14 36.9708Z" fill="#FEC298"/>
<path d="M50 36.8169C49.7054 16.0339 46.1048 9.11854 45 8.5C40.5809 12.4587 43.4941 29.8068 44.8444 37.7447C46.9067 38.487 49.1407 37.4354 50 36.8169Z" fill="#FEC298"/>
<path d="M38.9505 8.21359L37.2569 8.62136C37.6332 8.71197 38.4989 9.02913 38.9505 9.57282C39.4021 10.1165 37.5014 16.5 31 17.5C31 17.5 34.056 12.8276 34.9985 10C36.4985 5.5 34.9992 4 34.9992 4C37.0316 4 38.48 6.85437 38.9505 8.21359Z" fill="#FEC298"/>
<path d="M24.0631 8.21359L25.7567 8.62136C25.3803 8.71197 24.5147 9.02913 24.0631 9.57282C23.6114 10.1165 24.4995 16.5 31.0009 17.5C31.0009 17.5 28.9576 12.8276 28.0151 10C26.5151 5.5 28.0144 4 28.0144 4C25.982 4 24.5335 6.85437 24.0631 8.21359Z" fill="#FEC298"/>
<path d="M31 17.5C32 17.5 32.5 37 31 60C31.5 47.5 31.5 21.5 31 17.5Z" fill="#FEC298"/>
<circle cx="34" cy="27" r="1" fill="#FEC298"/>
<circle cx="34" cy="34" r="1" fill="#FEC298"/>
<circle cx="34" cy="41" r="1" fill="#FEC298"/>
<circle cx="34" cy="48" r="1" fill="#FEC298"/>
</svg>
