<svg width="157" height="124" viewBox="0 0 157 124" fill="none" xmlns="http://www.w3.org/2000/svg">
<rect opacity="0.3" width="156" height="124" rx="8" fill="#B1957C"/>
<path opacity="0.2" d="M73.2795 91.4333C47.0248 108.178 13.487 93.2693 0 83.7221L0 8C0 3.58173 3.58172 0 8 0L148 0C152.418 0 156 3.58173 156 8V66C132.173 63.246 106.098 70.5028 73.2795 91.4333Z" fill="#B1957C"/>
<path d="M73.6268 18.3472C73.2535 16.8982 73.9518 14 77.9836 14C81.7016 14 82.213 16.5761 82.0264 17.8642C82.0263 18.9913 81.0182 21.2454 76.9864 21.2454V26.0757" stroke="#48221F" stroke-linecap="round" stroke-linejoin="round"/>
<path d="M54.2629 31.5461C54.2629 30.7889 54.7614 30.1221 55.4876 29.9077L76.4179 23.7278C76.7876 23.6186 77.1809 23.6186 77.5506 23.7278L98.4809 29.9077C99.2071 30.1221 99.7056 30.7889 99.7056 31.5461C99.7056 32.6221 98.7229 33.4302 97.6672 33.2224L77.3705 29.2272C77.1155 29.177 76.853 29.177 76.598 29.2272L56.3013 33.2224C55.2456 33.4302 54.2629 32.6221 54.2629 31.5461Z" fill="#B1957C"/>
<path d="M76.9843 27.5849C70.1995 29.4298 56.4405 33.1196 55.6831 33.1196L76.9843 25.5723C83.927 26.914 98.4838 29.8082 99.2323 30.6038C99.7056 31.1069 99.7056 32.1132 99.2323 32.6164L76.9843 27.5849Z" fill="#4C4035"/>
<path d="M50.2676 114.532C56.089 116.075 66.654 118.311 78.9808 118.311C90.9102 118.311 100.045 116.182 105.075 114.646C107.379 113.943 108.663 111.573 108.047 109.243C104.043 94.1122 94.4619 74.5014 90.5984 66.8968C89.5386 64.811 89.227 62.4396 89.7468 60.1584L92.9576 46.0683C92.9727 46.0021 92.9667 45.9328 92.9405 45.8701C91.4096 42.2094 92.2421 37.9865 95.0479 35.1808L95.5005 34.7281C95.5484 34.6803 95.5817 34.6198 95.5966 34.5538L96.6111 30.0543C96.8413 29.0334 96.2455 28.0077 95.2447 27.7018L92.1834 26.7661C91.4384 26.5383 90.6391 26.7766 90.0537 27.2907C87.0361 29.9408 82.4635 31.0215 77.2308 31.0215C72.0923 31.0215 67.6963 29.8751 64.9847 27.3971C64.3709 26.8362 63.5157 26.5638 62.7255 26.8226L59.7173 27.8077C58.7339 28.1298 58.1586 29.1487 58.3907 30.1571L59.403 34.5539C59.4182 34.6199 59.4516 34.6803 59.4995 34.7281L59.8667 35.0954C62.7281 37.9567 63.5924 42.2559 62.0593 46.0008C62.0332 46.0645 62.0274 46.1348 62.0428 46.202L64.8174 58.3783C65.5883 61.7611 65.0295 65.6563 63.4656 68.7534C59.1938 77.2132 50.7816 94.9302 47.0272 108.959C46.371 111.411 47.8141 113.882 50.2676 114.532Z" fill="#FEF4ED"/>
<path opacity="0.31" d="M105.902 103.335C105.488 99.2042 94.713 76.4829 89.377 65.6387C97.6392 92.9042 96.9507 110.737 95.5737 116.245C113.647 114.696 106.418 108.499 105.902 103.335Z" fill="#FFB987"/>
<path opacity="0.31" d="M62.5247 116.246C70.3738 105.505 70.787 85.2625 73.3689 70.2871C72.8525 86.2953 73.3689 105.918 74.9181 117.795C71.2001 117.795 65.1066 116.763 62.5247 116.246Z" fill="#FFB987"/>
<path opacity="0.31" d="M88.8607 62.0247C86.382 43.0214 91.9632 34.828 95.0616 33.623L91.96 40.3362V47.0493L88.8607 62.0247Z" fill="#FFB987"/>
<path opacity="0.31" d="M64.5902 66.6722C66.3118 65.8116 69.2378 56.3444 67.1722 48.0821C65.623 43.4345 61.905 31.5571 63.5575 27.4261C61.905 27.013 58.9099 28.4591 58.9099 30.5245C58.9099 30.5245 59.4263 33.623 63.5575 40.3362C62.5247 46.5329 62.8284 46.6494 63.5575 49.1148C67.1722 61.3382 64.5902 66.6722 64.5902 66.6722Z" fill="#FFB987"/>
<path d="M65.7998 60.9922H89.0496C88.8617 62.5414 89.0338 64.2627 89.3781 65.1233H65.3225C65.6231 63.5742 65.7998 61.8528 65.7998 60.9922Z" fill="#FF9064"/>
<mask id="mask0" mask-type="alpha" maskUnits="userSpaceOnUse" x="0" y="19" width="69" height="105">
<rect y="19.8633" width="69" height="104.137" rx="8" fill="#FCFFFF"/>
</mask>
<g mask="url(#mask0)">
<path d="M-3.36515e-09 116.5C-3.1314 98.5211 0.813269 52.4693 37.9204 29.1914C40.7118 43.1367 42.8664 74.319 30.556 92.4819C35.1619 87.3031 44.9988 80.967 59.645 83.8378C57.8832 96.6123 51.0718 122.729 37.9204 125L6.21544 125C4.75703 124.054 0.727601 124.449 -3.36515e-09 116.5Z" fill="#8CBAA9"/>
<path d="M6.1062 117.718C7.6719 100.922 13.9738 63.4973 26.656 48.168C24.6989 61.4156 17.8489 93.8722 6.1062 117.718Z" fill="#378B86"/>
<path d="M17.2618 117.718C21.9589 111.094 33.7017 97.4207 43.0959 95.7174C39.9645 102.105 30.4137 115.447 17.2618 117.718Z" fill="#378B86"/>
</g>
<mask id="mask1" mask-type="alpha" maskUnits="userSpaceOnUse" x="120" y="0" width="36" height="50">
<rect x="120" width="36" height="49.2632" rx="8" fill="#FCFFFF"/>
</mask>
<g mask="url(#mask1)">
<path d="M141.663 1.41155e-06C127.634 16.6474 132.029 41.0101 133.59 48.2617C147.511 38.6407 155.585 25.9373 156.026 8C156.059 7 156.029 5 154.27 3C152.863 1.4 150.504 0.333333 149.5 6.41674e-07L141.663 1.41155e-06Z" fill="#8CBAA9"/>
<path d="M138.792 37.5039C145.756 29.6789 149.77 12.3588 151.475 1C151.329 0.87019 150.783 0.549507 149.768 0.305283C143.586 14.0073 139.927 30.3608 138.792 37.5039Z" fill="#378B86"/>
</g>
</svg>
