<svg width="64" height="64" viewBox="0 0 64 64" fill="none" xmlns="http://www.w3.org/2000/svg">
<path d="M30.4248 8.83008H41.0024V26.1237H30.4248V8.83008Z" fill="#FEEAD8"/>
<path d="M30.7383 5.94727H40.7182V9.51649H30.7383V5.94727Z" fill="#FFB987"/>
<path d="M35.424 0V6.8M35.424 6.8L22.6092 12.0753C21.5962 12.4923 21.8944 14 22.9898 14H48.214C49.3148 14 49.6077 12.481 48.5859 12.0717L35.424 6.8Z" stroke="#2E1403"/>
<path d="M21.667 9.79987L29.187 8.17383L36.3218 32.5545C36.8224 34.5247 37.5234 40.3859 36.3218 48.0695C35.1201 55.7531 26.0578 56.4427 21.6768 55.827C22.4278 49.5471 25.245 36.3224 25.5454 33.6627C25.8458 31.003 23.4292 26.644 22.8033 24.797C24.005 20.3642 23.0439 13.0014 21.667 9.79987Z" fill="#FEEAD8"/>
<path d="M49.2001 9.79987L41.9547 8.17383L34.732 32.5545C34.2313 34.5247 33.5303 40.3859 34.732 48.0695C35.9336 55.7531 44.996 56.4427 49.377 55.827C48.6259 49.5471 45.8087 36.3224 45.5083 33.6627C45.2079 31.003 47.6246 26.644 48.2504 24.797C47.0488 20.3642 47.8233 13.0014 49.2001 9.79987Z" fill="#FEEAD8"/>
<path d="M36.3213 33.6641C36.822 37.4812 37.8234 46.9626 35.5703 50.6567C36.071 48.5634 36.6968 42.8992 36.3213 33.6641Z" fill="#FEC298"/>
<path d="M12.3335 51.7626C14.7368 26.6431 19.5389 13.3697 21.6668 9.79883C27.0742 15.7093 25.7268 22.4565 24.3499 25.1655C23.1482 26.052 19.8437 44.4976 18.3417 53.6096L12.3335 51.7626Z" fill="#FEC298"/>
<path d="M59 51.7626C56.5967 26.6431 51.3279 13.3697 49.2 9.79883C43.7926 15.7093 45.6067 22.4565 46.9836 25.1655C48.1853 26.052 51.4898 44.4976 52.9918 53.6096L59 51.7626Z" fill="#FEC298"/>
<path d="M31.298 5.59961C31.298 5.59961 29.2511 6.72469 28.3506 8.22479C27.4501 9.72489 27.15 11.6 27.15 11.6L29.5512 12.7251L26.2495 13.8502C26.6497 15.8503 27.7503 19.1005 29.5512 20.9756C32.7546 24.311 34.7539 29.7262 36.4548 33.3515C36.4548 31.8514 35.2542 20.6006 34.3537 17.9754C33.6333 15.8753 31.7982 8.97484 31.298 5.59961Z" fill="#FEC298"/>
<path d="M39.9194 5.59961C39.9194 5.59961 41.8841 6.7038 42.7603 8.17604C43.6364 9.64829 43.9285 11.4886 43.9285 11.4886L41.592 12.5928L44.8047 13.697C44.4153 15.66 43.3444 18.8498 41.592 20.6902C38.475 23.9636 37.1822 25.9657 35.5272 29.5236C35.5272 28.0514 36.0428 20.3221 36.919 17.7457C37.62 15.6845 39.4326 8.91217 39.9194 5.59961Z" fill="#FEC298"/>
<path d="M39.1881 37.6684L44.7683 36.4551L46.0083 40.7246C45.3883 40.8594 42.5362 40.9847 41.0482 41.3083C39.5601 41.6318 39.3948 38.8817 39.1881 37.6684Z" fill="#FEC298"/>
<path d="M31.7464 37.6938L26.1663 36.4805L24.9263 40.75C25.5463 40.8848 28.3984 41.0102 29.8864 41.3337C31.3744 41.6573 31.5398 38.9071 31.7464 37.6938Z" fill="#FEC298"/>
<ellipse cx="34.4434" cy="36.618" rx="1.12654" ry="1.10821" fill="#FEC298"/>
<ellipse cx="34.4434" cy="42.5281" rx="1.12654" ry="1.10821" fill="#FEC298"/>
<path fill-rule="evenodd" clip-rule="evenodd" d="M15.8916 4.62475V0H16.98V4.62225L30.7266 7.73091C32.626 8.16043 32.3137 10.956 30.3665 10.956H2.86597C0.924173 10.956 0.605369 8.17188 2.49693 7.73295L15.8916 4.62475ZM16.4374 5.61544L2.74296 8.7932C2.11245 8.93951 2.21869 9.86753 2.86597 9.86753H30.3665C31.0156 9.86753 31.1196 8.93568 30.4865 8.79252L16.4374 5.61544Z" fill="#2E1403"/>
<g opacity="0.2">
<path d="M3.82943 33.9668L29.5299 33.9668C29.5299 31.7307 30.9286 27.445 31.6279 25.5816L31.6279 13.6063C31.6279 12.5018 30.7325 11.6063 29.6279 11.6063L21.1379 11.6063L16.4174 11.6063L12.2214 11.6063L5.4471 11.6063C4.303 11.6063 3.3905 12.561 3.43521 13.7042C3.56726 17.0809 3.7535 23.5488 3.34379 25.5816C2.75925 28.4817 3.82943 32.3363 3.82943 33.9668Z" fill="#00181C"/>
<path d="M29.53 34.4609L4.05433 34.4609L3.53442 29.904L30.5698 29.904C30.1539 29.904 29.7033 32.942 29.53 34.4609Z" fill="#00181C"/>
<path d="M10.8118 25.4026L10.8118 28.8203L12.3716 28.8203L12.3716 25.4026L10.8118 25.4026Z" fill="#00181C"/>
<path d="M26.9302 20.8477C29.0098 18.5692 30.9162 17.2401 31.6094 16.8604L31.6094 11.7338C29.1138 13.5566 27.4501 18.5692 26.9302 20.8477Z" fill="#00181C"/>
<path d="M23.2917 25.4026L23.2917 28.8203L21.7319 28.8203L21.7319 25.4026L23.2917 25.4026Z" fill="#00181C"/>
<path d="M4.64886 11.1641H18.128H26.2156L31.1579 11.1641C31.7057 11.1641 32.1512 11.5871 32.157 12.1348C32.2138 17.5304 32.4682 44.2411 32.1464 62.4295H22.4414L18.128 11.1641L13.2755 62.4295H2.49219V12.1642C2.49219 11.6119 2.94031 11.1642 3.49258 11.1642L4.64886 11.1641Z" fill="#00181C"/>
<path d="M25.1387 11.7344L28.3737 62.4301H26.7562L25.1387 11.7344Z" fill="#00181C"/>
<path d="M9.50146 11.1641L7.88396 62.4294H9.50146V11.1641Z" fill="#00181C"/>
</g>
<path d="M2.82943 32.9668L28.5299 32.9668C28.5299 30.7307 29.9286 26.445 30.6279 24.5816L30.6279 12.6063C30.6279 11.5018 29.7325 10.6063 28.6279 10.6063L20.1379 10.6063L15.4174 10.6063L11.2214 10.6063L4.4471 10.6063C3.303 10.6063 2.3905 11.561 2.43521 12.7042C2.56726 16.0809 2.7535 22.5488 2.34379 24.5816C1.75925 27.4817 2.82943 31.3363 2.82943 32.9668Z" fill="#F1B78E"/>
<path d="M28.53 33.4609L3.05433 33.4609L2.53442 28.904L29.5698 28.904C29.1539 28.904 28.7033 31.942 28.53 33.4609Z" fill="#FFB078"/>
<path d="M9.81185 24.4026L9.81185 27.8203L11.3716 27.8203L11.3716 24.4026L9.81185 24.4026Z" fill="#FFB987"/>
<path d="M25.9302 19.8477C28.0098 17.5692 29.9162 16.2401 30.6094 15.8604L30.6094 10.7338C28.1138 12.5566 26.4501 17.5692 25.9302 19.8477Z" fill="#FFDEC7"/>
<path d="M22.2917 24.4026L22.2917 27.8203L20.7319 27.8203L20.7319 24.4026L22.2917 24.4026Z" fill="#FFB987"/>
<path d="M3.64886 10.1641H17.128H25.2156L30.1579 10.1641C30.7057 10.1641 31.1512 10.5871 31.157 11.1348C31.2138 16.5304 31.4682 43.2411 31.1464 61.4295H21.4414L17.128 10.1641L12.2755 61.4295H1.49219V11.1642C1.49219 10.6119 1.94031 10.1642 2.49258 10.1642L3.64886 10.1641Z" fill="#FFDEC7"/>
<path d="M24.1387 10.7344L27.3737 61.4301H25.7562L24.1387 10.7344Z" fill="#FFB078"/>
<path d="M8.50146 10.1641L6.88396 61.4294H8.50146V10.1641Z" fill="#FFB078"/>
</svg>
