<svg width="28" height="30" viewBox="0 0 28 30" fill="none" xmlns="http://www.w3.org/2000/svg">
<path d="M7.25999 9H21.9997L18.734 11L6 10.5L7.25999 9Z" fill="#339AB9"/>
<path d="M24 11.3471C24 10.0562 22.8816 9 21.5148 9L18.6155 10.05H10V30H20.7694L24 28.95V11.3471Z" fill="#339AB9"/>
<path d="M25.5 8C26.875 8 28 6.90909 28 5.57576V4H23V5.57576C23 6.90909 24.125 8 25.5 8Z" fill="#B3D9E5"/>
<path d="M12.4615 8V4.22222C12.4615 3 11.3538 2 10 2H21.0769C22.4308 2 23.5385 3 23.5385 4.22222V5.77778C23.5385 7 24.6462 8 26 8" fill="#FCFFFF"/>
<path d="M21 30H5V12.3529C5 11.0588 6.10769 10 7.46154 10H18.5385C19.8923 10 21 11.0588 21 12.3529V30Z" fill="#80C0D3"/>
<path d="M7 17C7 16.4477 7.44772 16 8 16H18C18.5523 16 19 16.4477 19 17V21C19 21.5523 18.5523 22 18 22H8C7.44772 22 7 21.5523 7 21V17Z" fill="#EBF8FA"/>
<path d="M18.2941 15H7.70588C7.30588 15 7 14.5667 7 14C7 13.4333 7.30588 13 7.70588 13H18.2941C18.6941 13 19 13.4333 19 14C19 14.5667 18.6941 15 18.2941 15Z" fill="#004D64"/>
<path d="M16.5 23C16.1022 23 15.7206 23.1054 15.4393 23.2929C15.158 23.4804 15 23.7348 15 24C15 24.2652 15.158 24.5196 15.4393 24.7071C15.7206 24.8946 16.1022 25 16.5 25C16.8978 25 17.2794 24.8946 17.5607 24.7071C17.842 24.5196 18 24.2652 18 24C18 23.7348 17.842 23.4804 17.5607 23.2929C17.2794 23.1054 16.8978 23 16.5 23Z" fill="#FDD5B1"/>
<path d="M17.0476 26.1818C16.795 26.1818 16.5528 26.2776 16.3742 26.4481C16.1956 26.6186 16.0952 26.8498 16.0952 27.0909C16.0952 27.332 16.1956 27.5632 16.3742 27.7337C16.5528 27.9042 16.795 28 17.0476 28C17.3002 28 17.5424 27.9042 17.7211 27.7337C17.8997 27.5632 18 27.332 18 27.0909C18 26.8498 17.8997 26.6186 17.7211 26.4481C17.5424 26.2776 17.3002 26.1818 17.0476 26.1818ZM13 23C12.7474 23 12.5052 23.0958 12.3266 23.2663C12.148 23.4368 12.0476 23.668 12.0476 23.9091C12.0476 24.1502 12.148 24.3814 12.3266 24.5519C12.5052 24.7224 12.7474 24.8182 13 24.8182C13.2526 24.8182 13.4948 24.7224 13.6734 24.5519C13.852 24.3814 13.9524 24.1502 13.9524 23.9091C13.9524 23.668 13.852 23.4368 13.6734 23.2663C13.4948 23.0958 13.2526 23 13 23ZM13 26.1818C12.7474 26.1818 12.5052 26.2776 12.3266 26.4481C12.148 26.6186 12.0476 26.8498 12.0476 27.0909C12.0476 27.332 12.148 27.5632 12.3266 27.7337C12.5052 27.9042 12.7474 28 13 28C13.2526 28 13.4948 27.9042 13.6734 27.7337C13.852 27.5632 13.9524 27.332 13.9524 27.0909C13.9524 26.8498 13.852 26.6186 13.6734 26.4481C13.4948 26.2776 13.2526 26.1818 13 26.1818ZM8.95238 23C8.69979 23 8.45755 23.0958 8.27895 23.2663C8.10034 23.4368 8 23.668 8 23.9091C8 24.1502 8.10034 24.3814 8.27895 24.5519C8.45755 24.7224 8.69979 24.8182 8.95238 24.8182C9.20497 24.8182 9.44721 24.7224 9.62582 24.5519C9.80442 24.3814 9.90476 24.1502 9.90476 23.9091C9.90476 23.668 9.80442 23.4368 9.62582 23.2663C9.44721 23.0958 9.20497 23 8.95238 23ZM8.95238 26.1818C8.69979 26.1818 8.45755 26.2776 8.27895 26.4481C8.10034 26.6186 8 26.8498 8 27.0909C8 27.332 8.10034 27.5632 8.27895 27.7337C8.45755 27.9042 8.69979 28 8.95238 28C9.20497 28 9.44721 27.9042 9.62582 27.7337C9.80442 27.5632 9.90476 27.332 9.90476 27.0909C9.90476 26.8498 9.80442 26.6186 9.62582 26.4481C9.44721 26.2776 9.20497 26.1818 8.95238 26.1818Z" fill="#FDD5B1"/>
<path d="M18.4545 13V4.29167C18.4545 3.03125 19.6 2 21 2H9.54545C8.14545 2 7 3.03125 7 4.29167V13" fill="#B3D9E5"/>
<path d="M16 5H10" stroke="#FEF4ED" stroke-linecap="round"/>
<path d="M16 8H10" stroke="#FEF4ED" stroke-linecap="round"/>
<path d="M16 11H10" stroke="#FEF4ED" stroke-linecap="round"/>
</svg>
